<?xml version="1.0" encoding="UTF-8"?>
<svg width="32" height="32" viewBox="0 0 32 32" fill="none" xmlns="http://www.w3.org/2000/svg">
  <path d="M6 4C4.89543 4 4 4.89543 4 6V26C4 27.1046 4.89543 28 6 28H26C27.1046 28 28 27.1046 28 26V6C28 4.89543 27.1046 4 26 4H6Z" fill="#90CAF9"/>
  <path d="M8 7C7.44772 7 7 7.44772 7 8V24C7 24.5523 7.44772 25 8 25H24C24.5523 25 25 24.5523 25 24V8C25 7.44772 24.5523 7 24 7H8Z" fill="#1A237E"/>
  <path d="M16 7V25M7 16H25" stroke="#90CAF9" stroke-width="1"/>
</svg> 